<?xml version="1.0" encoding="UTF-8"?>
<svg width="16px" height="16px" viewBox="0 0 16 16" version="1.1" xmlns="http://www.w3.org/2000/svg" xmlns:xlink="http://www.w3.org/1999/xlink">
    <title>GGLabel</title>
    <g id="GGLabel" stroke="none" stroke-width="1" fill="none" fill-rule="evenodd">
        <path d="M5,15 L3,15 C1.8954305,15 1,14.1045695 1,13 L1,11 L3,11 L3,13 L5,13 L5,15 Z M13,13 L13,11 L15,11 L15,13 C15,14.1045695 14.1045695,15 13,15 L11,15 L11,13 L13,13 Z M13,3 L11,3 L11,1 L13,1 C14.1045695,1 15,1.8954305 15,3 L15,5 L13,5 L13,3 Z M3,3 L3,5 L1,5 L1,3 C1,1.8954305 1.8954305,1 3,1 L5,1 L5,3 L3,3 Z" id="Combined-Shape" fill="#8EEF97" fill-rule="nonzero"></path>
        <g id="Label" transform="translate(4, 5)" fill="#8EEF97" fill-rule="nonzero">
            <path d="M2.85706441,0 C2.70552221,0 2.56019859,0.0632703751 2.45305825,0.1758 L0.167309097,2.5758 C-0.055769699,2.81009991 -0.055769699,3.18990009 0.167309097,3.4242 L2.45305825,5.8242 C2.56019859,5.93672962 2.70552221,6 2.85706441,6 L7.42856271,6 C7.74415881,6 8,5.73137085 8,5.4 L8,0.6 C8,0.26862915 7.74415881,0 7.42856271,0 L2.85706441,0 Z M2.28562712,2.4 C2.60122322,2.4 2.85706441,2.66862915 2.85706441,3 C2.85706441,3.33137085 2.60122322,3.6 2.28562712,3.6 C1.97003102,3.6 1.71418983,3.33137085 1.71418983,3 C1.71418983,2.66862915 1.97003102,2.4 2.28562712,2.4 Z" id="Shape"></path>
        </g>
        <rect id="Rectangle-Copy-13" fill="#8EEF97" fill-rule="nonzero" x="1" y="13" width="2" height="2"></rect>
        <rect id="Rectangle-Copy-14" fill="#8EEF97" fill-rule="nonzero" x="1" y="1" width="2" height="2"></rect>
        <rect id="Rectangle-Copy-15" fill="#8EEF97" fill-rule="nonzero" x="13" y="1" width="2" height="2"></rect>
        <rect id="Rectangle-Copy-16" fill="#8EEF97" fill-rule="nonzero" x="13" y="13" width="2" height="2"></rect>
    </g>
</svg>