<?xml version="1.0" encoding="UTF-8"?>
<svg width="16px" height="16px" viewBox="0 0 16 16" version="1.1" xmlns="http://www.w3.org/2000/svg" xmlns:xlink="http://www.w3.org/1999/xlink">
    <title>InitialWindowSizeControl</title>
    <g id="InitialWindowSizeControl" stroke="none" stroke-width="1" fill="none" fill-rule="evenodd">
        <path d="M13,1 C14.1045695,1 15,1.8954305 15,3 L15,13 C15,14.1045695 14.1045695,15 13,15 L3,15 C1.8954305,15 1,14.1045695 1,13 L1,3 C1,1.8954305 1.8954305,1 3,1 L13,1 Z M14,5 L2,5 L2,14 L14,14 L14,5 Z M13,11 L13,13 L11,13 L11,12 L12,12 L12,11 L13,11 Z M3,13 L3,11 L4,11 L4,12 L5,12 L5,13 L3,13 Z M13,6 L13,8 L12,8 L12,7 L11,7 L11,6 L13,6 Z M5,6 L5,7 L4,7 L4,8 L3,8 L3,6 L5,6 Z M4,2 L2,2 L2,4 L4,4 L4,2 Z" id="Combined-Shape" fill="#8EEF97" fill-rule="nonzero"></path>
    </g>
</svg>