<?xml version="1.0" encoding="UTF-8"?>
<svg width="16px" height="16px" viewBox="0 0 16 16" version="1.1" xmlns="http://www.w3.org/2000/svg" xmlns:xlink="http://www.w3.org/1999/xlink">
    <title>GGLimitedSizeComponent</title>
    <g id="GGLimitedSizeComponent" stroke="none" stroke-width="1" fill="none" fill-rule="evenodd">
        <g id="Group" transform="translate(1, 1)" fill="#8EEF97">
            <rect id="Rectangle" x="2" y="2" width="2" height="4"></rect>
            <rect id="Rectangle-Copy-2" x="2" y="8" width="2" height="4"></rect>
            <rect id="Rectangle-Copy-3" x="10" y="8" width="2" height="4"></rect>
            <rect id="Rectangle-Copy-4" x="10" y="2" width="2" height="4"></rect>
            <rect id="Rectangle-Copy" x="4" y="2" width="2" height="2"></rect>
            <rect id="Rectangle-Copy-8" x="0" y="0" width="1" height="2"></rect>
            <rect id="Rectangle-Copy-18" x="13" y="0" width="1" height="2"></rect>
            <rect id="Rectangle-Copy-19" x="13" y="12" width="1" height="2"></rect>
            <rect id="Rectangle-Copy-12" x="1" y="0" width="1" height="1"></rect>
            <rect id="Rectangle-Copy-13" x="12" y="0" width="1" height="1"></rect>
            <rect id="Rectangle-Copy-14" x="12" y="13" width="1" height="1"></rect>
            <rect id="Rectangle-Copy-15" x="1" y="13" width="1" height="1"></rect>
            <rect id="Rectangle-Copy-9" x="0" y="12" width="1" height="2"></rect>
            <rect id="Rectangle-Copy-10" x="0" y="8" width="1" height="2"></rect>
            <rect id="Rectangle-Copy-11" x="0" y="4" width="1" height="2"></rect>
            <rect id="Rectangle-Copy-22" x="13" y="4" width="1" height="2"></rect>
            <rect id="Rectangle-Copy-23" x="13" y="8" width="1" height="2"></rect>
            <rect id="Rectangle-Copy-16" x="4" y="0" width="2" height="1"></rect>
            <rect id="Rectangle-Copy-17" x="8" y="0" width="2" height="1"></rect>
            <rect id="Rectangle-Copy-20" x="8" y="13" width="2" height="1"></rect>
            <rect id="Rectangle-Copy-21" x="4" y="13" width="2" height="1"></rect>
            <rect id="Rectangle-Copy-5" x="8" y="2" width="2" height="2"></rect>
            <rect id="Rectangle-Copy-6" x="8" y="10" width="2" height="2"></rect>
            <rect id="Rectangle-Copy-7" x="4" y="10" width="2" height="2"></rect>
        </g>
    </g>
</svg>