<?xml version="1.0" encoding="UTF-8"?>
<svg width="16px" height="16px" viewBox="0 0 16 16" version="1.1" xmlns="http://www.w3.org/2000/svg" xmlns:xlink="http://www.w3.org/1999/xlink">
    <title>GGNinePatchRect</title>
    <g id="GGNinePatchRect" stroke="none" stroke-width="1" fill="none" fill-rule="evenodd">
        <g id="Group" transform="translate(1, 1)" fill="#8EEF97">
            <rect id="Rectangle" x="0" y="0" width="1" height="3"></rect>
            <rect id="Rectangle-Copy-2" x="0" y="11" width="1" height="3"></rect>
            <rect id="Rectangle-Copy-3" x="13" y="11" width="1" height="3"></rect>
            <rect id="Rectangle-Copy-4" x="13" y="0" width="1" height="3"></rect>
            <rect id="Rectangle-Copy" x="1" y="0" width="2" height="1"></rect>
            <path d="M2,2 L12,2 C12,2.66666667 12,3 12,3 C12,3 8.66666667,3 2,3 L2,2 Z" id="Rectangle-Copy-8"></path>
            <path d="M2,2 L3,2 C3,8.66666667 3,12 3,12 C3,12 2.66666667,12 2,12 L2,2 Z" id="Rectangle-Copy-12"></path>
            <path d="M11,2 L12,2 C12,8.66666667 12,12 12,12 C12,12 11.6666667,12 11,12 L11,2 Z" id="Rectangle-Copy-13"></path>
            <path d="M5,2 L6,2 C6,8.66666667 6,12 6,12 C6,12 5.66666667,12 5,12 L5,2 Z" id="Rectangle-Copy-14"></path>
            <path d="M8,2 L9,2 C9,8.66666667 9,12 9,12 C9,12 8.66666667,12 8,12 L8,2 Z" id="Rectangle-Copy-15"></path>
            <path d="M2,5 L12,5 C12,5.66666667 12,6 12,6 C12,6 8.66666667,6 2,6 L2,5 Z" id="Rectangle-Copy-9"></path>
            <path d="M2,11 L12,11 C12,11.6666667 12,12 12,12 C12,12 8.66666667,12 2,12 L2,11 Z" id="Rectangle-Copy-10"></path>
            <path d="M2,8 L12,8 C12,8.66666667 12,9 12,9 C12,9 8.66666667,9 2,9 L2,8 Z" id="Rectangle-Copy-11"></path>
            <rect id="Rectangle-Copy-5" x="11" y="0" width="2" height="1"></rect>
            <rect id="Rectangle-Copy-6" x="11" y="13" width="2" height="1"></rect>
            <rect id="Rectangle-Copy-7" x="1" y="13" width="2" height="1"></rect>
        </g>
    </g>
</svg>