<?xml version="1.0" encoding="UTF-8"?>
<svg width="16px" height="16px" viewBox="0 0 16 16" version="1.1" xmlns="http://www.w3.org/2000/svg" xmlns:xlink="http://www.w3.org/1999/xlink">
    <title>GGParameterSetter</title>
    <g id="GGParameterSetter" stroke="none" stroke-width="1" fill="none" fill-rule="evenodd">
        <rect id="Rectangle-Copy-13" fill="#8EEF97" fill-rule="nonzero" x="1" y="11" width="2" height="4"></rect>
        <rect id="Rectangle-Copy-14" fill="#8EEF97" fill-rule="nonzero" x="1" y="1" width="2" height="4"></rect>
        <rect id="Rectangle-Copy-17" fill="#8EEF97" fill-rule="nonzero" x="3" y="1" width="2" height="2"></rect>
        <rect id="Rectangle-Copy-18" fill="#8EEF97" fill-rule="nonzero" x="11" y="1" width="2" height="2"></rect>
        <rect id="Rectangle-Copy-19" fill="#8EEF97" fill-rule="nonzero" x="11" y="13" width="2" height="2"></rect>
        <rect id="Rectangle-Copy-20" fill="#8EEF97" fill-rule="nonzero" x="3" y="13" width="2" height="2"></rect>
        <rect id="Rectangle-Copy-15" fill="#8EEF97" fill-rule="nonzero" x="13" y="1" width="2" height="4"></rect>
        <rect id="Rectangle-Copy-16" fill="#8EEF97" fill-rule="nonzero" x="13" y="11" width="2" height="4"></rect>
        <rect id="Rectangle-Copy-21" fill="#8EEF97" fill-rule="nonzero" x="10" y="7" width="3" height="1"></rect>
        <rect id="Rectangle-Copy-23" fill="#8EEF97" fill-rule="nonzero" x="3" y="6" width="2" height="1"></rect>
        <rect id="Rectangle-Copy-25" fill="#8EEF97" fill-rule="nonzero" x="7" y="6" width="2" height="1"></rect>
        <rect id="Rectangle-Copy-29" fill="#8EEF97" fill-rule="nonzero" x="7" y="10" width="2" height="1"></rect>
        <rect id="Rectangle-Copy-30" fill="#8EEF97" fill-rule="nonzero" x="3" y="10" width="2" height="1"></rect>
        <rect id="Rectangle-Copy-26" fill="#8EEF97" fill-rule="nonzero" x="5" y="8" width="2" height="1"></rect>
        <rect id="Rectangle-Copy-27" fill="#8EEF97" fill-rule="nonzero" x="5" y="8" width="2" height="1"></rect>
        <rect id="Rectangle-Copy-24" fill="#8EEF97" fill-rule="nonzero" x="4" y="7" width="4" height="1"></rect>
        <rect id="Rectangle-Copy-28" fill="#8EEF97" fill-rule="nonzero" x="4" y="9" width="4" height="1"></rect>
        <rect id="Rectangle-Copy-22" fill="#8EEF97" fill-rule="nonzero" x="10" y="9" width="3" height="1"></rect>
    </g>
</svg>