<?xml version="1.0" encoding="UTF-8"?>
<svg width="16px" height="16px" viewBox="0 0 16 16" version="1.1" xmlns="http://www.w3.org/2000/svg" xmlns:xlink="http://www.w3.org/1999/xlink">
    <title>GGRichTextLabel</title>
    <g id="GGRichTextLabel" stroke="none" stroke-width="1" fill="none" fill-rule="evenodd">
        <path d="M3,11 L3,13 L5,13 L5,15 L3,15 C1.8954305,15 1,14.1045695 1,13 L1,11 L3,11 Z M15,11 L15,13 C15,14.1045695 14.1045695,15 13,15 L11,15 L11,13 L13,13 L13,11 L15,11 Z M12,10 L12,12 L10,12 L10,10 L12,10 Z M9,10 L9,12 L4,12 L4,10 L9,10 Z M12,7 L12,9 L4,9 L4,7 L12,7 Z M6,4 L6,6 L4,6 L4,4 L6,4 Z M12,4 L12,6 L7,6 L7,4 L12,4 Z M13,1 C14.1045695,1 15,1.8954305 15,3 L15,5 L13,5 L13,3 L11,3 L11,1 L13,1 Z M5,1 L5,3 L3,3 L3,5 L1,5 L1,3 C1,1.8954305 1.8954305,1 3,1 L5,1 Z" id="Combined-Shape" fill="#8EEF97" fill-rule="nonzero"></path>
        <rect id="Rectangle-Copy-7" fill="#8EEF97" fill-rule="nonzero" x="1" y="1" width="2" height="2"></rect>
        <rect id="Rectangle-Copy-8" fill="#8EEF97" fill-rule="nonzero" x="13" y="1" width="2" height="2"></rect>
        <rect id="Rectangle-Copy-11" fill="#8EEF97" fill-rule="nonzero" x="13" y="13" width="2" height="2"></rect>
        <rect id="Rectangle-Copy-13" fill="#8EEF97" fill-rule="nonzero" x="1" y="13" width="2" height="2"></rect>
    </g>
</svg>